<svg xmlns="http://www.w3.org/2000/svg" width="96" height="96" viewBox="0 0 96 96">
  <rect width="96" height="96" rx="12" fill="#081225" fill-opacity=".92"/>
  <rect x="2" y="2" width="92" height="92" rx="10" fill="none" stroke="#65c9df" stroke-opacity=".46" stroke-width="2"/>
  <rect x="7" y="7" width="82" height="82" rx="7" fill="none" stroke="#2d6d8a" stroke-opacity=".38"/>
  <path d="M3 22V8a5 5 0 0 1 5-5h14M74 3h14a5 5 0 0 1 5 5v14M93 74v14a5 5 0 0 1-5 5H74M22 93H8a5 5 0 0 1-5-5V74" fill="none" stroke="#d3ad63" stroke-width="3"/>
  <path d="M13 16h12M16 13v12M71 16h12M80 13v12M13 80h12M16 71v12M71 80h12M80 71v12" stroke="#65c9df" stroke-opacity=".55"/>
</svg>
